<?xml version="1.0" encoding="utf-8"?>
<!-- Generator: Adobe Illustrator 19.0.0, SVG Export Plug-In . SVG Version: 6.00 Build 0)  -->
<svg version="1.1" id="レイヤー_1" xmlns="http://www.w3.org/2000/svg" xmlns:xlink="http://www.w3.org/1999/xlink" x="0px"
	 y="0px" viewBox="0 0 100 100" style="enable-background:new 0 0 100 100;" xml:space="preserve">
<style type="text/css">
	.st0{fill:none;stroke:#E4007F;stroke-miterlimit:10;}
	.st1{fill:#E4007F;}
</style>
<path id="XMLID_10_" class="st0" d="M50,28.9c0,0,7-19.1,25.8-14.9c18.7,4.1,17.8,19.2,16,26.1C90,46.9,78.3,58.4,67.7,64.8
	C57,71.3,50.6,78.3,50,80.7c-0.6-2.3-7-9.4-17.7-15.8C21.7,58.4,10,46.9,8.2,40c-1.7-6.8-2.7-21.9,16-26.1C43,9.8,50,28.9,50,28.9z"
	/>
<g id="XMLID_8_">
	<g id="XMLID_16_">
		<path id="XMLID_68_" class="st1" d="M21.5,38.6c0.1-0.2,0-0.7,0-1c-0.1-0.4,0-0.7,0.2-0.8c0.2-0.1,0.3,0.1,0.4,0.4
			c0,0.2,0,0.5,0,1.2c0.1-0.1,0.2-0.1,0.4-0.2c0.5-0.1,0.9,0.2,1.1,1.1c0.2,1.3,0.1,2.3-0.2,3c-0.2,0.3-0.4,0.5-0.6,0.4
			c-0.2-0.1-0.5-0.3-0.7-0.5c-0.1-0.1-0.1-0.3-0.1-0.4s0.1-0.1,0.2-0.1c0.2,0.2,0.4,0.2,0.5,0.2c0.1,0,0.2-0.1,0.2-0.2
			c0.2-0.6,0.2-1.4,0-2.5c-0.1-0.4-0.2-0.6-0.4-0.6c-0.2,0.1-0.4,0.2-0.6,0.3c-0.1,0.9-0.3,1.9-0.5,3.2c-0.2,1-0.3,1.5-0.5,1.5
			c-0.2,0-0.3-0.1-0.3-0.4c0-0.2,0-0.4,0.1-0.7c0.2-0.6,0.3-1.3,0.5-2.3c0.1-0.5,0.1-0.8,0.1-1c-0.2,0.1-0.4,0.2-0.7,0.4
			c-0.1,0.1-0.2,0.1-0.4,0.2c-0.2,0.1-0.4,0-0.4-0.2c-0.1-0.2,0-0.4,0.2-0.5C20.5,39.1,21.3,38.9,21.5,38.6z M24.5,40
			c0.4-0.2,0.7-0.4,0.8-0.6c0.1-0.2,0-0.5-0.2-0.7c-0.2-0.2-0.6-0.3-1.1-0.3c-0.2,0-0.3,0-0.3-0.2c0-0.2,0.1-0.3,0.2-0.3
			c0.6-0.1,1.2,0,1.5,0.4c0.4,0.4,0.5,0.7,0.4,1.1c-0.1,0.3-0.4,0.6-0.8,0.9c-0.1,0.1-0.3,0.2-0.5,0.2c-0.2,0.1-0.3,0-0.3-0.1
			C24.2,40.2,24.2,40.1,24.5,40z M23.6,36.1c0.6,0,1.1,0.1,1.4,0.5c0.1,0.2,0.1,0.3-0.1,0.4c-0.1,0.1-0.3,0-0.4-0.1
			c-0.2-0.2-0.5-0.4-0.9-0.4c-0.1,0-0.2-0.1-0.2-0.2C23.4,36.2,23.4,36.1,23.6,36.1z M24,35.4c0.6-0.2,1.1-0.1,1.4,0.2
			c0.1,0.2,0.1,0.3,0,0.4c-0.1,0.1-0.2,0.1-0.4-0.1c-0.2-0.2-0.6-0.3-1-0.3c-0.1,0-0.2,0-0.2-0.1C23.8,35.5,23.8,35.4,24,35.4z"/>
		<path id="XMLID_66_" class="st1" d="M33.2,38.5c-0.5,1.3-1.1,2.1-1.9,2.2c-0.4,0.1-0.7-0.1-0.9-0.5c-0.1-0.2-0.1-0.6-0.2-1.1
			c0-0.6-0.1-0.9-0.3-0.8c-0.2,0-0.4,0.2-0.6,0.5c-0.4,0.6-0.6,1.3-0.8,2.1c0,0.3-0.1,0.4-0.2,0.5c-0.1,0-0.1,0.1-0.2,0
			c-0.1-0.1-0.2-0.2-0.2-0.3c0-0.1,0-0.3,0.1-0.7c0.4-1.5,0.7-2.6,1-3.4c0.3-0.8,0.4-1.2,0.5-1.4c0.1-0.3,0.2-0.4,0.4-0.4
			c0.2,0,0.2,0.2,0.2,0.5c0,0.1-0.1,0.3-0.2,0.5c-0.3,0.6-0.6,1.4-1,2.4c0.2-0.5,0.6-0.8,1-0.9c0.5-0.1,0.8,0.3,0.8,1.3
			c0,0.5,0.1,0.9,0.2,1c0.1,0.1,0.2,0.1,0.3,0.1c0.5-0.1,1-0.7,1.4-1.8c0.1-0.2,0.2-0.3,0.4-0.2C33.2,38.2,33.2,38.3,33.2,38.5z"/>
		<path id="XMLID_60_" class="st1" d="M36.1,38.4c0.1-0.2,0.2-0.2,0.3-0.1c0.1,0.1,0.1,0.2,0.1,0.4c-0.2,0.6-0.3,1-0.4,1.3
			c-0.1,0.2-0.2,0.3-0.4,0.1c-0.2-0.2-0.4-0.7-0.4-1.5c-0.1-1,0-2,0.1-3c0-0.2,0.1-0.3,0.1-0.5c0-0.2,0.2-0.3,0.3-0.3
			c0.2,0,0.3,0.1,0.3,0.4c0,0.1-0.1,0.4-0.2,0.8c-0.2,0.6-0.2,1.5-0.2,2.6c0,0.3,0.1,0.5,0.1,0.7c0,0,0.1-0.1,0.1-0.3
			C36,38.7,36.1,38.5,36.1,38.4z M38.5,34.9c0,0,0-0.1,0-0.1c0-0.3,0.1-0.4,0.3-0.4c0.2,0,0.3,0.2,0.3,0.4c0,0.2,0,0.5,0,0.9
			c0.2-0.1,0.5-0.1,0.7-0.2c0.1,0,0.3-0.1,0.4,0c0.1,0.1,0.2,0.2,0.2,0.3c0,0.2-0.4,0.3-1.2,0.5c0,0.1,0,0.1,0,0.1
			c0,0.7,0,1.3,0.1,1.8c0,0.1,0,0.1,0,0.2c0.4,0.1,0.7,0.2,0.9,0.4c0.3,0.2,0.4,0.3,0.4,0.5c0,0.2-0.1,0.3-0.3,0.3
			c-0.1,0-0.1,0-0.2-0.1c-0.2-0.2-0.5-0.3-0.8-0.5c0,0,0,0,0,0c0,0.3-0.1,0.6-0.3,0.8c-0.2,0.2-0.4,0.3-0.8,0.3
			c-0.4,0-0.7-0.1-1-0.4C37,39.5,37,39.4,37,39.2c0-0.2,0.1-0.4,0.3-0.6c0.2-0.2,0.5-0.3,0.9-0.3c0.2,0,0.3,0,0.5,0
			c0-0.8,0-1.2-0.1-1.9c-0.3,0.1-0.5,0.1-0.7,0.1c-0.4,0-0.7-0.1-0.9-0.3c-0.2-0.2-0.2-0.3-0.2-0.4s0.2-0.1,0.3,0
			c0.2,0.1,0.4,0.2,0.6,0.2c0.2,0,0.5,0,0.8-0.1C38.5,35.7,38.5,35.4,38.5,34.9z M38.6,38.8c-0.2,0-0.4,0-0.6,0
			c-0.2,0-0.4,0.1-0.5,0.2c0,0.1-0.1,0.1-0.1,0.2c0,0,0,0.1,0,0.1c0.1,0.2,0.3,0.3,0.6,0.2c0.4,0,0.6-0.3,0.6-0.6
			C38.6,38.8,38.6,38.8,38.6,38.8z M39.6,34.3c0.6,0.1,1,0.4,1.2,0.7c0.1,0.2,0,0.3-0.2,0.3c-0.1,0-0.2-0.1-0.4-0.2
			c-0.2-0.2-0.4-0.4-0.8-0.6c-0.1,0-0.2-0.1-0.1-0.2C39.3,34.3,39.4,34.3,39.6,34.3z M40.1,33.8c0.6,0,1.1,0.2,1.3,0.5
			c0.1,0.2,0.1,0.3-0.1,0.4c-0.1,0-0.2,0-0.4-0.2c-0.2-0.2-0.5-0.4-0.9-0.5c-0.1,0-0.2-0.1-0.2-0.2C39.9,33.8,39.9,33.8,40.1,33.8z"
			/>
		<path id="XMLID_58_" class="st1" d="M44,38.2c-0.1,0.2-0.3,0.4-0.5,0.7c-0.2,0.3-0.4,0.6-0.5,0.7c-0.1,0.1-0.1,0.2-0.2,0.1
			c-0.2,0-0.3-0.2-0.3-0.4c0-0.1,0.1-0.3,0.3-0.4c0.2-0.2,0.7-0.7,1.3-1.5c0-0.2,0-0.3,0-0.5c0,0,0-0.1,0-0.1c0-0.1,0-0.2,0-0.3
			c-0.2,0.1-0.4,0.1-0.6,0.2c-0.2,0.1-0.3,0.1-0.4,0.1c-0.2,0-0.3-0.1-0.3-0.3c0-0.2,0.1-0.3,0.4-0.3c0.2,0,0.5-0.1,1-0.2
			c0-0.1,0-0.1,0-0.3c0-0.1,0-0.1,0-0.1c0-0.3,0-0.5,0-0.6c0-0.3,0.1-0.4,0.4-0.3c0.2,0,0.3,0.2,0.3,0.4c0,0.1,0,0.3-0.1,0.4
			c-0.1,0.2-0.1,0.4-0.1,0.5c0,0,0.1,0,0.2,0.1c0.1,0.1,0.1,0.2,0,0.3c-0.1,0.1-0.2,0.2-0.3,0.3c0,0.1,0,0.2,0,0.4
			c0.9-1,1.7-1.4,2.2-1.3c0.5,0.1,0.7,0.5,0.6,1.1c0,0.1-0.1,0.4-0.2,0.9c-0.2,0.6-0.3,0.9-0.3,1.1c-0.1,0.3,0,0.5,0.1,0.5
			c0.3,0,0.6-0.1,0.9-0.4c0.2-0.1,0.3-0.1,0.4,0c0.1,0.1,0.1,0.3-0.1,0.4c-0.5,0.4-1,0.6-1.4,0.6c-0.5-0.1-0.7-0.5-0.5-1.3
			c0-0.3,0.1-0.7,0.3-1.2c0.1-0.3,0.1-0.5,0.2-0.7c0-0.3,0-0.4-0.2-0.5c-0.3-0.1-1,0.4-2.1,1.4c0,0,0,0,0,0
			c-0.1,0.6-0.1,1.2-0.1,1.7c0,0.1,0,0.2,0,0.2c0,0.2,0,0.3-0.1,0.4c-0.1,0.1-0.1,0.1-0.2,0.1c-0.2,0-0.2-0.1-0.2-0.3
			c0-0.2,0.1-0.5,0.1-1.1C43.9,38.6,43.9,38.5,44,38.2C44,38.2,44,38.2,44,38.2z"/>
		<path id="XMLID_55_" class="st1" d="M53.7,37c0.3-0.3,0.6-0.5,0.9-0.6c0.3-0.1,0.7,0,1.1,0.1c0.5,0.2,0.8,0.5,1.1,0.9
			c0.2,0.5,0.3,0.9,0.2,1.4c-0.1,0.2-0.1,0.4-0.3,0.5c-0.1,0.2-0.2,0.3-0.4,0.4c-0.1,0.1-0.3,0.2-0.5,0.3c-0.2,0.1-0.3,0.2-0.5,0.2
			c-0.1,0.1-0.3,0.1-0.5,0.2c0,0-0.1,0-0.1,0.1c-0.4,0.2-0.8,0.4-1.2,0.7c-0.4,0.3-0.7,0.5-0.9,0.7c0,0,0,0,0,0c0,0,0,0,0,0
			c-0.1-0.3-0.3-0.6-0.5-1.1c-0.3-0.5-0.5-0.9-0.8-1.3c0,0,0-0.1-0.1-0.1c-0.1-0.2-0.2-0.3-0.3-0.5c-0.1-0.1-0.2-0.3-0.3-0.5
			c-0.1-0.2-0.2-0.4-0.3-0.6c-0.1-0.2-0.1-0.4-0.1-0.6c0-0.2,0-0.4,0-0.6c0.1-0.5,0.3-0.9,0.7-1.2c0.4-0.3,0.8-0.3,1.3-0.2
			c0.4,0.1,0.7,0.3,0.9,0.6S53.6,36.6,53.7,37C53.7,37,53.7,37,53.7,37z M56.6,38.7c0.1-0.4,0.1-0.8-0.1-1.2
			c-0.2-0.4-0.5-0.6-0.9-0.8c-0.3-0.1-0.7-0.1-0.9-0.1c-0.3,0.1-0.5,0.3-0.8,0.6c-0.1,0.1-0.2,0.1-0.3,0.1c-0.1,0-0.1-0.1-0.2-0.3
			c-0.1-0.4-0.2-0.8-0.4-1c-0.2-0.2-0.5-0.4-0.8-0.5c-0.4-0.1-0.8-0.1-1.1,0.2c-0.3,0.2-0.5,0.6-0.6,1c0,0.2,0,0.3,0,0.5
			c0,0.2,0.1,0.3,0.1,0.5c0.1,0.2,0.1,0.3,0.2,0.5s0.1,0.3,0.3,0.5c0.1,0.2,0.2,0.3,0.2,0.4c0.1,0.1,0.1,0.2,0.2,0.4
			c0.3,0.4,0.5,0.8,0.7,1.1c0.2,0.4,0.4,0.7,0.5,1c0,0,0,0,0,0c0,0,0,0,0,0c0.2-0.2,0.5-0.4,0.8-0.6c0.3-0.2,0.7-0.4,1.1-0.6
			c0,0,0.1,0,0.1,0c0.2-0.1,0.3-0.2,0.4-0.2c0.1-0.1,0.2-0.1,0.4-0.2c0.2-0.1,0.3-0.2,0.4-0.3c0.1-0.1,0.2-0.2,0.3-0.4
			C56.5,39.1,56.5,38.9,56.6,38.7z"/>
	</g>
</g>
<g id="XMLID_1_">
	<g id="XMLID_15_">
		<path id="XMLID_50_" class="st1" d="M40.9,51.7c0.1-0.2,0-0.7,0-1c-0.1-0.4,0-0.7,0.2-0.8c0.2-0.1,0.3,0.1,0.4,0.4
			c0,0.2,0,0.5,0,1.2c0.1-0.1,0.2-0.1,0.4-0.2c0.5-0.1,0.9,0.2,1.1,1.1c0.2,1.3,0.1,2.3-0.2,3c-0.2,0.3-0.4,0.5-0.6,0.4
			c-0.2-0.1-0.5-0.3-0.7-0.5c-0.1-0.1-0.1-0.3-0.1-0.4c0.1-0.1,0.1-0.1,0.2-0.1c0.2,0.2,0.4,0.2,0.5,0.2c0.1,0,0.2-0.1,0.2-0.2
			c0.2-0.6,0.2-1.4,0-2.5c-0.1-0.4-0.2-0.6-0.4-0.6c-0.2,0.1-0.4,0.2-0.6,0.3c-0.1,0.9-0.3,1.9-0.5,3.2c-0.2,1-0.3,1.5-0.5,1.5
			c-0.2,0-0.3-0.1-0.3-0.4c0-0.2,0-0.4,0.1-0.7c0.2-0.6,0.3-1.3,0.5-2.3c0.1-0.5,0.1-0.8,0.1-1c-0.2,0.1-0.4,0.2-0.7,0.4
			c-0.1,0.1-0.2,0.1-0.4,0.2c-0.2,0.1-0.4,0-0.4-0.2c-0.1-0.2,0-0.4,0.2-0.5C39.8,52.2,40.7,52,40.9,51.7z M43.8,53.1
			c0.4-0.2,0.7-0.4,0.8-0.6c0.1-0.2,0-0.5-0.2-0.7c-0.2-0.2-0.6-0.3-1.1-0.3c-0.2,0-0.3,0-0.3-0.2c0-0.2,0.1-0.3,0.2-0.3
			c0.6-0.1,1.2,0,1.5,0.4c0.4,0.4,0.5,0.7,0.4,1.1c-0.1,0.3-0.4,0.6-0.8,0.9c-0.1,0.1-0.3,0.2-0.5,0.2c-0.2,0.1-0.3,0-0.3-0.1
			C43.5,53.3,43.6,53.2,43.8,53.1z M42.9,49.3c0.6,0,1.1,0.1,1.4,0.5c0.1,0.2,0.1,0.3-0.1,0.4c-0.1,0.1-0.3,0-0.4-0.1
			c-0.2-0.2-0.5-0.4-0.9-0.4c-0.1,0-0.2-0.1-0.2-0.2C42.7,49.3,42.8,49.3,42.9,49.3z M43.3,48.5c0.6-0.2,1.1-0.1,1.4,0.2
			c0.1,0.2,0.1,0.3,0,0.4c-0.1,0.1-0.2,0.1-0.4-0.1c-0.2-0.2-0.6-0.3-1-0.3c-0.1,0-0.2,0-0.2-0.1C43.1,48.6,43.2,48.6,43.3,48.5z"/>
		<path id="XMLID_48_" class="st1" d="M52.5,51.6c-0.5,1.3-1.1,2.1-1.9,2.2c-0.4,0.1-0.7-0.1-0.9-0.5c-0.1-0.2-0.1-0.6-0.2-1.1
			c0-0.6-0.1-0.9-0.3-0.8c-0.2,0-0.4,0.2-0.6,0.5c-0.4,0.6-0.6,1.3-0.8,2.1c0,0.3-0.1,0.4-0.2,0.5c-0.1,0-0.1,0.1-0.2,0
			c-0.1-0.1-0.2-0.2-0.2-0.3c0-0.1,0-0.3,0.1-0.7c0.4-1.5,0.7-2.6,1-3.4c0.3-0.8,0.4-1.2,0.5-1.4c0.1-0.3,0.2-0.4,0.4-0.4
			c0.2,0,0.2,0.2,0.2,0.5c0,0.1-0.1,0.3-0.2,0.5c-0.3,0.6-0.6,1.4-1,2.4c0.2-0.5,0.6-0.8,1-0.9c0.5-0.1,0.8,0.3,0.8,1.3
			c0,0.5,0.1,0.9,0.2,1c0.1,0.1,0.2,0.1,0.3,0.1c0.5-0.1,1-0.7,1.4-1.8c0.1-0.2,0.2-0.3,0.4-0.2S52.6,51.4,52.5,51.6z"/>
		<path id="XMLID_42_" class="st1" d="M55.5,51.5c0.1-0.2,0.2-0.2,0.3-0.1c0.1,0.1,0.1,0.2,0.1,0.4c-0.2,0.6-0.3,1-0.4,1.3
			c-0.1,0.2-0.2,0.3-0.4,0.1c-0.2-0.2-0.4-0.7-0.4-1.5c-0.1-1,0-2,0.1-3c0-0.2,0.1-0.3,0.1-0.5c0-0.2,0.2-0.3,0.3-0.3
			c0.2,0,0.3,0.1,0.3,0.4c0,0.1-0.1,0.4-0.2,0.8c-0.2,0.6-0.2,1.5-0.2,2.6c0,0.3,0.1,0.5,0.1,0.7c0,0,0.1-0.1,0.1-0.3
			C55.4,51.8,55.5,51.7,55.5,51.5z M57.9,48.1c0,0,0-0.1,0-0.1c0-0.3,0.1-0.4,0.3-0.4c0.2,0,0.3,0.2,0.3,0.4c0,0.2,0,0.5,0,0.9
			c0.2-0.1,0.5-0.1,0.7-0.2c0.1,0,0.3-0.1,0.4,0c0.1,0.1,0.2,0.2,0.2,0.3c0,0.2-0.4,0.3-1.2,0.5c0,0.1,0,0.1,0,0.1
			c0,0.7,0,1.3,0.1,1.8c0,0.1,0,0.1,0,0.2c0.4,0.1,0.7,0.2,0.9,0.4c0.3,0.2,0.4,0.3,0.4,0.5c0,0.2-0.1,0.3-0.3,0.3
			c-0.1,0-0.1,0-0.2-0.1c-0.2-0.2-0.5-0.3-0.8-0.5c0,0,0,0,0,0c0,0.3-0.1,0.6-0.3,0.8c-0.2,0.2-0.4,0.3-0.8,0.3
			c-0.4,0-0.7-0.1-1-0.4c-0.1-0.1-0.2-0.3-0.2-0.4c0-0.2,0.1-0.4,0.3-0.6c0.2-0.2,0.5-0.3,0.9-0.3c0.2,0,0.3,0,0.5,0
			c0-0.8,0-1.2-0.1-1.9c-0.3,0.1-0.5,0.1-0.7,0.1c-0.4,0-0.7-0.1-0.9-0.3c-0.2-0.2-0.2-0.3-0.2-0.4c0.1-0.1,0.2-0.1,0.3,0
			c0.2,0.1,0.4,0.2,0.6,0.2c0.2,0,0.5,0,0.8-0.1C57.9,48.9,57.9,48.6,57.9,48.1z M58,51.9c-0.2,0-0.4,0-0.6,0
			c-0.2,0-0.4,0.1-0.5,0.2c0,0.1-0.1,0.1-0.1,0.2c0,0,0,0.1,0,0.1c0.1,0.2,0.3,0.3,0.6,0.2c0.4,0,0.6-0.3,0.6-0.6
			C58,52,58,52,58,51.9z M58.9,47.4c0.6,0.1,1,0.4,1.2,0.7c0.1,0.2,0,0.3-0.2,0.3c-0.1,0-0.2-0.1-0.4-0.2c-0.2-0.2-0.4-0.4-0.8-0.6
			c-0.1,0-0.2-0.1-0.1-0.2C58.7,47.4,58.8,47.4,58.9,47.4z M59.4,46.9c0.6,0,1.1,0.2,1.3,0.5c0.1,0.2,0.1,0.3-0.1,0.4
			c-0.1,0-0.2,0-0.4-0.2c-0.2-0.2-0.5-0.4-0.9-0.5c-0.1,0-0.2-0.1-0.2-0.2C59.2,46.9,59.3,46.9,59.4,46.9z"/>
		<path id="XMLID_40_" class="st1" d="M63.3,51.4c-0.1,0.2-0.3,0.4-0.5,0.7c-0.2,0.3-0.4,0.6-0.5,0.7c-0.1,0.1-0.1,0.2-0.2,0.1
			c-0.2,0-0.3-0.2-0.3-0.4c0-0.1,0.1-0.3,0.3-0.4c0.2-0.2,0.7-0.7,1.3-1.5c0-0.2,0-0.3,0-0.5c0,0,0-0.1,0-0.1c0-0.1,0-0.2,0-0.3
			c-0.2,0.1-0.4,0.1-0.6,0.2C62.7,50,62.6,50,62.5,50c-0.2,0-0.3-0.1-0.3-0.3c0-0.2,0.1-0.3,0.4-0.3c0.2,0,0.5-0.1,1-0.2
			c0-0.1,0-0.1,0-0.3c0-0.1,0-0.1,0-0.1c0-0.3,0-0.5,0-0.6c0-0.3,0.1-0.4,0.4-0.3c0.2,0,0.3,0.2,0.3,0.4c0,0.1,0,0.3-0.1,0.4
			c-0.1,0.2-0.1,0.4-0.1,0.5c0,0,0.1,0,0.2,0.1c0.1,0.1,0.1,0.2,0,0.3c-0.1,0.1-0.2,0.2-0.3,0.3c0,0.1,0,0.2,0,0.4
			c0.9-1,1.7-1.4,2.2-1.3c0.5,0.1,0.7,0.5,0.6,1.1c0,0.1-0.1,0.4-0.2,0.9c-0.2,0.6-0.3,0.9-0.3,1.1c-0.1,0.3,0,0.5,0.1,0.5
			c0.3,0,0.6-0.1,0.9-0.4c0.2-0.1,0.3-0.1,0.4,0c0.1,0.1,0.1,0.3-0.1,0.4c-0.5,0.4-1,0.6-1.4,0.6c-0.5-0.1-0.7-0.5-0.5-1.3
			c0-0.3,0.1-0.7,0.3-1.2c0.1-0.3,0.1-0.5,0.2-0.7c0-0.3,0-0.4-0.2-0.5c-0.3-0.1-1,0.4-2.1,1.4c0,0,0,0,0,0
			c-0.1,0.6-0.1,1.2-0.1,1.7c0,0.1,0,0.2,0,0.2c0,0.2,0,0.3-0.1,0.4c-0.1,0.1-0.1,0.1-0.2,0.1c-0.2,0-0.2-0.1-0.2-0.3
			c0-0.2,0.1-0.5,0.1-1.1C63.3,51.8,63.3,51.6,63.3,51.4C63.3,51.4,63.3,51.4,63.3,51.4z"/>
		<path id="XMLID_37_" class="st1" d="M73.1,50.1c0.3-0.3,0.6-0.5,0.9-0.6c0.3-0.1,0.7,0,1.1,0.1c0.5,0.2,0.8,0.5,1.1,0.9
			c0.2,0.5,0.3,0.9,0.2,1.4c-0.1,0.2-0.1,0.4-0.3,0.5c-0.1,0.2-0.2,0.3-0.4,0.4c-0.1,0.1-0.3,0.2-0.5,0.3c-0.2,0.1-0.3,0.2-0.5,0.2
			c-0.1,0.1-0.3,0.1-0.5,0.2c-0.1,0-0.1,0-0.1,0.1c-0.4,0.2-0.8,0.4-1.2,0.7s-0.7,0.5-0.9,0.7c0,0,0,0,0,0c0,0,0,0,0,0
			c-0.1-0.3-0.3-0.6-0.5-1.1s-0.5-0.9-0.8-1.3c0,0,0-0.1-0.1-0.1c-0.1-0.2-0.2-0.3-0.3-0.5c-0.1-0.1-0.2-0.3-0.3-0.5
			c-0.1-0.2-0.2-0.4-0.3-0.6c-0.1-0.2-0.1-0.4-0.1-0.6c0-0.2,0-0.4,0-0.6c0.1-0.5,0.3-0.9,0.7-1.2c0.4-0.3,0.8-0.3,1.3-0.2
			c0.4,0.1,0.7,0.3,0.9,0.6C72.8,49.3,72.9,49.7,73.1,50.1C73,50.2,73,50.2,73.1,50.1z M75.9,51.9c0.1-0.4,0.1-0.8-0.1-1.2
			c-0.2-0.4-0.5-0.6-0.9-0.8c-0.3-0.1-0.7-0.1-0.9-0.1c-0.3,0.1-0.5,0.3-0.8,0.6c-0.1,0.1-0.2,0.1-0.3,0.1c-0.1,0-0.1-0.1-0.2-0.3
			c-0.1-0.4-0.2-0.8-0.4-1c-0.2-0.2-0.5-0.4-0.8-0.5c-0.4-0.1-0.8-0.1-1.1,0.2c-0.3,0.2-0.5,0.6-0.6,1c0,0.2,0,0.3,0,0.5
			s0.1,0.3,0.1,0.5c0.1,0.2,0.1,0.3,0.2,0.5c0.1,0.1,0.1,0.3,0.3,0.5c0.1,0.2,0.2,0.3,0.2,0.4c0.1,0.1,0.1,0.2,0.2,0.4
			c0.3,0.4,0.5,0.8,0.7,1.1c0.2,0.4,0.4,0.7,0.5,1c0,0,0,0,0,0c0,0,0,0,0,0c0.2-0.2,0.5-0.4,0.8-0.6c0.3-0.2,0.7-0.4,1.1-0.6
			c0,0,0.1,0,0.1,0c0.2-0.1,0.3-0.2,0.4-0.2c0.1-0.1,0.2-0.1,0.4-0.2c0.2-0.1,0.3-0.2,0.4-0.3c0.1-0.1,0.2-0.2,0.3-0.4
			C75.8,52.2,75.9,52.1,75.9,51.9z"/>
	</g>
</g>
</svg>
