<?xml version="1.0" encoding="utf-8"?>
<!-- Generator: Adobe Illustrator 19.0.0, SVG Export Plug-In . SVG Version: 6.00 Build 0)  -->
<svg version="1.1" id="レイヤー_1" xmlns="http://www.w3.org/2000/svg" xmlns:xlink="http://www.w3.org/1999/xlink" x="0px"
	 y="0px" viewBox="0 0 100 100" style="enable-background:new 0 0 100 100;" xml:space="preserve">
<style type="text/css">
	.st0{fill:#EA5514;}
	.st1{font-family:'HiraMaruPro-W4-83pv-RKSJ-H';}
	.st2{font-size:6.4585px;}
	.st3{letter-spacing:1;}
	.st4{font-size:14px;}
	.st5{letter-spacing:3;}
	.st6{fill:none;stroke:#EA5514;}
</style>
<text id="XMLID_1_" transform="matrix(1 0 0 1 20.2687 34.7253)"><tspan x="0" y="0" class="st0 st1 st2">もうい</tspan><tspan x="19.4" y="0" class="st0 st1 st2 st3">い</tspan><tspan x="27.4" y="0" class="st0 st1 st2">...!</tspan></text>
<text id="XMLID_2_" transform="matrix(1 0 0 1 55.9186 34.7254)"><tspan x="0" y="0" class="st0 st1 st2">もう</tspan><tspan x="12.9" y="0" class="st0 st1 st2 st3">っ</tspan><tspan x="21" y="0" class="st0 st1 st2">...</tspan></text>
<text id="XMLID_3_" transform="matrix(1 0 0 1 23.8892 52.0885)"><tspan x="0" y="0" class="st0 st1 st4">休め</tspan><tspan x="28" y="0" class="st0 st1 st4 st5">っ</tspan><tspan x="45.5" y="0" class="st0 st1 st4">!!</tspan></text>
<path id="XMLID_4_" class="st6" d="M55.5,74.7C53,71.8,53,68,54.8,65.4c1.7-2.6,1.7-4.3,5.9-4.6c1.9-0.1,5.9,2.3,7.8,2
	c1.9-0.3,3.8-3.3,5.6-3.7c1.9-0.4,4.6,2.5,6.3,2c1.9-0.6,2.4-2.6,4.1-3.3c1.8-0.8,6.2-0.4,7.5-1.7c2.3-2.3,0.3-3.5,1.4-4.9
	c1.2-1.4,3.4-2,4.1-3.8c0.6-1.7-1.8-4.7-1.7-6.7c0.1-2,2-4,1.2-5.8c-0.8-1.7-1.4-1.4-2.9-2.9c-1.3-1.3,0.3-5-1.4-6.1
	c-1.5-1-3.9-0.3-5.8-1.2c-1.7-0.8-2.7-2.9-4.7-3.5c-1.8-0.6-5.3,1.3-7.3,0.8c-1.8-0.4-2.3-2.5-4.3-2.8c-1.9-0.3-7.1,1.4-9,1.2
	c-1.9-0.1-3.2-2.1-5.2-2.1c-1.9,0-4.3,1.9-6.3,2c-1.9,0.1-4.3-1.9-6.2-1.7c-1.9,0.1-3.2,2.4-5,2.5c-1.9,0.2-4.5-1.6-6.3-1.4
	c-1.9,0.2-3,2.4-4.8,2.7c-1.9,0.3-4.2-1.4-5.9-1c-1.9,0.5-3,3-4.7,3.6c-1.9,0.7-4.2-1-5.7-0.1c-1.7,1-2,3.6-3.2,4.9
	c-1.3,1.4-3.9,2-4.6,3.8c-0.7,1.6,1,3.9,0.9,5.9c-0.1,2.2-2.2,5.3-1.7,7.1c0.6,2,3.4,1.7,4.6,3.3c1.2,1.6-0.1,6.7,1.6,7.9
	c1.6,1.2,5.1-0.8,7.1,0.1c1.8,0.8,2.9,3.6,4.9,4.2c1.9,0.6,4.7-2.4,6.8-2c2,0.4,3.5,3.4,5.6,3.6c2,0.2,3.2-2.4,5.2-2.3
	c2.1,0.1,2.9,2.6,4.9,2.6c2.1,0,1.8-0.6,3.4-1.8c1.4-1.1,5.2-0.1,4.2,2.6C49,70,52.2,72.9,55.5,74.7z"/>
</svg>
